<?xml version="1.0" encoding="utf-8"?>
<!-- Generator: Adobe Illustrator 28.2.0, SVG Export Plug-In . SVG Version: 6.00 Build 0)  -->
<svg version="1.1" id="Lager_1" xmlns="http://www.w3.org/2000/svg" xmlns:xlink="http://www.w3.org/1999/xlink" x="0px" y="0px"
	 viewBox="0 0 24 24" style="enable-background:new 0 0 24 24;" xml:space="preserve">
<style type="text/css">
	.st0{fill:#FF22E6;}
</style>
<path class="st0" d="M12,19.7L11.2,19c-1.6-1.5-3-2.8-4.1-3.8c-1.1-1.1-1.9-2-2.5-2.8c-0.6-0.8-1-1.5-1.3-2.2C3.1,9.5,3,8.8,3,8.1
	c0-1.3,0.4-2.3,1.3-3.2c0.9-0.9,1.9-1.3,3.2-1.3c0.9,0,1.7,0.2,2.5,0.7s1.4,1.1,2,2c0.6-0.9,1.3-1.5,2-2c0.8-0.5,1.6-0.7,2.5-0.7
	c1.3,0,2.3,0.4,3.2,1.3C20.6,5.8,21,6.9,21,8.1c0,0.7-0.1,1.3-0.4,2c-0.2,0.7-0.7,1.4-1.3,2.2s-1.5,1.7-2.5,2.8
	c-1.1,1.1-2.4,2.3-4.1,3.8L12,19.7z"/>
</svg>
