<?xml version="1.0" encoding="utf-8"?>
<!-- Generator: Adobe Illustrator 28.2.0, SVG Export Plug-In . SVG Version: 6.00 Build 0)  -->
<svg version="1.1" id="Lager_1" xmlns="http://www.w3.org/2000/svg" xmlns:xlink="http://www.w3.org/1999/xlink" x="0px" y="0px"
	 viewBox="0 0 24 24" style="enable-background:new 0 0 24 24;" xml:space="preserve">
<style type="text/css">
	.st0{fill:#FF4DC4;}
</style>
<path class="st0" d="M3,21v-2h18v2H3z M5.4,11.4c-0.5-0.4-0.8-1-1.1-1.6C4.1,9.2,4,8.6,4,7.9c0-1.3,0.5-2.5,1.4-3.5S7.5,3,8.8,3
	c0.6,0,1.2,0.1,1.7,0.3c0.5,0.2,1,0.5,1.5,0.9c0.4-0.4,0.9-0.7,1.5-0.9C14,3.1,14.6,3,15.2,3c1.4,0,2.5,0.5,3.4,1.5
	c0.9,1,1.4,2.1,1.4,3.5c0,0.7-0.1,1.3-0.4,1.9s-0.6,1.1-1,1.6l-5.2,5.1c-0.2,0.2-0.4,0.3-0.6,0.4C12.5,17,12.3,17,12,17
	s-0.5,0-0.8-0.1c-0.2-0.1-0.4-0.2-0.6-0.4L5.4,11.4z M6.8,10l5.2,5l5.2-5c0.3-0.3,0.5-0.6,0.6-0.9C18,8.7,18,8.3,18,7.9
	c0-0.8-0.3-1.5-0.8-2.1C16.7,5.3,16,5,15.2,5c-0.4,0-0.7,0.1-1.1,0.2s-0.6,0.3-0.9,0.6l-0.6,0.5c-0.1,0.1-0.2,0.2-0.3,0.2
	c-0.1,0.1-0.3,0.1-0.4,0.1c-0.1,0-0.3,0-0.4-0.1c-0.1,0-0.2-0.1-0.3-0.2l-0.6-0.5c-0.3-0.3-0.6-0.5-0.9-0.6C9.5,5.1,9.2,5,8.8,5
	C8,5,7.4,5.3,6.8,5.8S6,7.1,6,7.9C6,8.3,6.1,8.7,6.2,9C6.3,9.4,6.5,9.7,6.8,10z"/>
</svg>
